<svg xmlns="http://www.w3.org/2000/svg" viewBox="0 0 512 512" id="Dossier">
  <path d="M119 181.02V121H68.732A32.555 32.555 0 0 0 36 153.731V454.065A32.728 32.728 0 0 0 68.732 487H76V227.933C76 203.087 95 182.692 119 181.02zM433 25H133V181H433zM166.407 51h93.974a7 7 0 0 1 0 14H166.407a7 7 0 0 1 0-14zM400.381 155H166.407a7 7 0 0 1 0-14H400.381a7 7 0 0 1 0 14zm0-30H166.407a7 7 0 0 1 0-14H400.381a7 7 0 0 1 0 14zm0-30H166.407a7 7 0 0 1 0-14H400.381a7 7 0 0 1 0 14zM288.842 337.061l-7.555-15.31-7.556 15.311a7 7 0 0 1-5.271 3.829l-16.895 2.455 12.226 11.916a7 7 0 0 1 2.013 6.2l-2.887 16.827 15.112-7.944a7 7 0 0 1 6.515 0l15.111 7.944-2.886-16.827a7 7 0 0 1 2.013-6.2l12.226-11.916-16.895-2.455A7 7 0 0 1 288.842 337.061z" fill="#d85b53" class="color000000 svgShape"></path>
  <path d="M281.286,251.2c-17.985,10.354-40.118,8.889-60.951-4.007L193.8,277.3l2.095,1.671c24.669,19.562,16.044,41.678,7.7,63.064l-.551,1.408c-9.722,24.83-19.775,50.505,8.851,80.979,11.609,12.235,22.408,12.235,33.842,12.235,10.146.112,23.747,3.613,34.458,12.751a59.677,59.677,0,0,1,35.267-12.754c1.195,0,2.641,0,3.784-.014.739-.009,1.637-.023,2.387-.046.37-.011.812-.024,1.18-.04,8.822-.375,18.3-2.109,27.838-12.164,28.87-30.735,17.68-59.361,8.69-82.362-1.79-4.588-3.069-8.024-4.148-11.143-3.226-9.328-4.641-16.262-4.589-22.481.1-11.483,5.205-20.846,16.078-29.467l2.089-1.672L342.24,247.2C321.407,260.094,299.272,261.559,281.286,251.2Zm49.651,92.267L311.19,362.719l4.662,27.179a7,7,0,0,1-10.157,7.379l-24.408-12.832-24.409,12.832a7,7,0,0,1-10.157-7.379l4.662-27.179-19.747-19.248a7,7,0,0,1,3.88-11.94l27.289-3.966,12.2-24.729a7,7,0,0,1,12.555,0l12.2,24.728,27.289,3.966a7,7,0,0,1,3.88,11.94Z" fill="#d85b53" class="color000000 svgShape"></path>
  <path d="M443.268,195H122.647A32.655,32.655,0,0,0,90,227.933V487H443.268A32.728,32.728,0,0,0,476,454.065V227.933A32.726,32.726,0,0,0,443.268,195Zm-57.409,83.741a7.006,7.006,0,0,1-2.6,4.862l-7.849,6.281c-9.447,7.49-10.76,13.622-10.8,18.635-.039,4.55,1.14,10.036,3.821,17.788,1.016,2.941,2.237,6.217,3.956,10.625,9.317,23.835,23.4,59.86-11.55,97.066-13.1,13.809-26.878,16.092-37.419,16.541-.424.018-.936.033-1.36.046-.827.025-1.821.041-2.64.051-1.2.014-2.706.015-3.873.015-8.256.092-21.263,3.614-30.492,13.236A7,7,0,0,1,280,466.042l-.183,0a6.836,6.836,0,0,1-5.116-2.25c-8.132-9.421-20.724-12.79-29.037-12.79h-.189c-12.477,0-28.061-.256-43.755-16.8-34.708-36.949-21.955-69.608-11.708-95.78l.547-1.44c9.585-24.575,11.778-35.019-3.374-47.035l-7.861-6.277a7.01,7.01,0,0,1-.888-10.111l35.448-40.215a7,7,0,0,1,9.347-1.048c27.136,19.581,46.829,9.938,54.036,4.884a7,7,0,0,1,8.038,0c7.208,5.054,26.9,14.695,54.036-4.885a7,7,0,0,1,9.345,1.045l35.447,40.164A7,7,0,0,1,385.859,278.741Z" fill="#d85b53" class="color000000 svgShape"></path>
</svg>
